inDegrees=yes
name=ik_S55_A12_T01
DataType=double
version=3
OpenSimVersion=4.3-2021-08-27-4bc7ad9
endheader
time	pelvis_tilt	pelvis_list	pelvis_rotation	pelvis_tx	pelvis_ty	pelvis_tz	hip_flexion_r	hip_adduction_r	hip_rotation_r	knee_angle_r	knee_angle_r_beta	ankle_angle_r	subtalar_angle_r	mtp_angle_r	hip_flexion_l	hip_adduction_l	hip_rotation_l	knee_angle_l	knee_angle_l_beta	ankle_angle_l	subtalar_angle_l	mtp_angle_l	lumbar_extension	lumbar_bending	lumbar_rotation	arm_flex_r	arm_add_r	arm_rot_r	elbow_flex_r	pro_sup_r	wrist_flex_r	wrist_dev_r	arm_flex_l	arm_add_l	arm_rot_l	elbow_flex_l	pro_sup_l	wrist_flex_l	wrist_dev_l
5.719999999999966	0.7379451443056203	1.432935723913395	36.78755175510966	0	0.9399999999999999	0	24.21538438305159	-8.324113822962014	-7.332780409115247	27.19590060393989	0.4746580085838655	0	0	0	24.21538438305159	-8.324113822962014	-7.332780409115247	27.19590060393989	0.4746580085838655	0	0	0	1.54337039860698	0.8438468411880727	8.783140297084421	-2.297360701844708	-5.772413945291132	-4.340389964667314	9.90894881708963	103.275156891701	0	0	9.801236310099751	-12.78895970818789	-19.14752060954664	9.740841082683406	109.5157320980225	0	0
5.739999999999966	0.7545964611345465	1.488496566438869	37.1016558901823	0	0.9399999999999999	0	24.34794525082461	-8.348838590046496	-7.361864889128329	27.3632581438635	0.4775789486835702	0	0	0	24.34794525082461	-8.348838590046496	-7.361864889128329	27.3632581438635	0.4775789486835702	0	0	0	1.590599850793895	0.866682847341029	8.489714351917739	-2.379134530641261	-5.822774012805302	-4.360590609845992	9.889798761040852	103.2782476834358	0	0	11.32540539595734	-14.87539291679522	-21.95013155561935	9.640479764087681	112.0354675784638	0	0
5.759999999999965	0.7498435604974206	1.486178755851258	37.2697033290515	0	0.9399999999999999	0	24.35738720366977	-8.351281893656585	-7.364371589794688	27.37278755650255	0.4777452683099029	0	0	0	24.35738720366977	-8.351281893656585	-7.364371589794688	27.37278755650255	0.4777452683099029	0	0	0	1.587899975165384	0.8606445908175194	8.330292186272001	-2.325721987001276	-5.79135535643614	-4.341654609952597	9.906547977548788	103.2141573681526	0	0	12.24268733454437	-15.89942383244806	-23.00257907480867	9.929068550912781	112.9497261893178	0	0
5.779999999999965	0.7476584179815485	1.502750448255427	37.42661211110869	0	0.9399999999999999	0	24.36644042245844	-8.353620583536896	-7.366772957731983	27.38193058104154	0.4779048441916989	0	0	0	24.36644042245844	-8.353620583536896	-7.366772957731983	27.38193058104154	0.4779048441916989	0	0	0	1.598969486051333	0.8693894504580642	8.169513007051945	-2.308282321571177	-5.807190188246023	-4.337969191129649	9.872980785157582	103.2274543443982	0	0	13.26125780204196	-17.02426380264404	-23.96608531039882	10.16921366073462	114.0594657271114	0	0
5.799999999999964	0.7096356457892362	1.528721684238806	37.57229893498845	0	0.9399999999999999	0	24.3757232449471	-8.356015407773338	-7.3692336044639	27.39130906589332	0.4780685296312109	0	0	0	24.3757232449471	-8.356015407773338	-7.3692336044639	27.39130906589332	0.4780685296312109	0	0	0	1.585932727417161	0.9097099117397313	8.030423850619757	-2.296571012173187	-5.885741623797586	-4.355278158713788	9.916745576156607	103.2116580649977	0	0	14.44821567179882	-18.14881946381498	-24.7145286463312	10.41224018035132	115.2502472676728	0	0
5.819999999999964	0.7115557762622124	1.529162337390941	37.64549073057965	0	0.9399999999999999	0	24.38394172026498	-8.358130624394841	-7.371409245823211	27.39962343081018	0.4782136426742224	0	0	0	24.38394172026498	-8.358130624394841	-7.371409245823211	27.39962343081018	0.4782136426742224	0	0	0	1.588896420828955	0.9065194953402739	7.963873292088838	-2.214348341404305	-5.901340554564776	-4.534431878011845	9.891088456241794	103.3836719883043	0	0	15.5966642403006	-19.25249922606686	-25.0818715947686	10.84307645460511	116.1549454393873	0	0
5.839999999999963	0.7092387952518511	1.604704838360939	37.74160150800019	0	0.9399999999999999	0	24.39166231138132	-8.360117121761574	-7.373452998089398	27.40743094532209	0.4783499095088525	0	0	0	24.39166231138132	-8.360117121761574	-7.373452998089398	27.40743094532209	0.4783499095088525	0	0	0	1.633499603831496	0.9670772628718337	7.938094824822517	-2.27463046880766	-6.001663675927542	-4.650876494676417	9.889992610049218	103.4212800679549	0	0	16.70904240263089	-20.06424911909835	-25.16428398487646	11.44418625965984	116.4508557110465	0	0
5.859999999999963	0.6774488634649954	1.615724604033087	37.74385159344335	0	0.9399999999999999	0	24.40334185936872	-8.363103640673085	-7.376533550609324	27.41929338999968	0.478556948225812	0	0	0	24.40334185936872	-8.363103640673085	-7.376533550609324	27.41929338999968	0.478556948225812	0	0	0	1.617028128442517	0.992793129507724	7.905349270969234	-2.221065993848074	-6.044403828006847	-4.566219078336448	9.881587982691178	103.3942656261133	0	0	16.6850085825535	-20.12243514592216	-25.20345322324923	13.72412783516306	115.8186254317349	0	0
5.879999999999963	0.6768546606539254	1.594963316312084	37.8139629734383	0	0.9399999999999999	0	24.41246555407399	-8.365447368281153	-7.378947149834533	27.42851739151003	0.4787179374223766	0	0	0	24.41246555407399	-8.365447368281153	-7.378947149834533	27.42851739151003	0.4787179374223766	0	0	0	1.605024234294446	0.9742636561206414	7.828152386485488	-2.14871735133661	-5.99104166247919	-4.49875711687496	9.918807669807739	103.3227671597435	0	0	18.00535585109969	-21.02461406334877	-25.27307055642926	13.53251490875264	116.0134876269455	0	0
5.899999999999962	0.6670555162225339	1.630825388559956	37.86713075533277	0	0.9399999999999999	0	24.42275107777358	-8.368088394609806	-7.381667852495902	27.43891105946404	0.4788993411495331	0	0	0	24.42275107777358	-8.368088394609806	-7.381667852495902	27.43891105946404	0.4788993411495331	0	0	0	1.621720568380765	1.005725711857434	7.791619265629095	-2.185367284414105	-6.057774198948029	-4.509479559978464	9.914316262417612	103.3266702077609	0	0	19.37568123833413	-22.10538447077678	-25.23713382672783	15.76231102704067	116.3335355736866	0	0
5.919999999999962	0.6048330807903264	1.636692361024592	37.88663143846093	0	0.9399999999999999	0	24.43035490197532	-8.370033710035978	-7.383674954561796	27.44661360908045	0.4790337760011376	0	0	0	24.43035490197532	-8.370033710035978	-7.383674954561796	27.44661360908045	0.4790337760011376	0	0	0	1.576679776250226	1.048979408008199	7.809018542559976	-2.080720387002573	-6.156997727669178	-4.558974649386668	9.945510703839693	103.3684208394958	0	0	21.01672704861945	-22.99620817644596	-24.79348659527069	15.5353902510041	116.385837949362	0	0
5.939999999999961	0.6400862845631433	1.691134313983602	37.8489470933285	0	0.9399999999999999	0	24.43740631016687	-8.371836334084769	-7.38553563089074	27.45375647703239	0.4791584425649342	0	0	0	24.43740631016687	-8.371836334084769	-7.38553563089074	27.45375647703239	0.4791584425649342	0	0	0	1.635789805533232	1.074229393502584	7.911727642599812	-2.198257173727299	-6.177369896528562	-4.646005473264069	9.959993127407996	103.4602069557365	0	0	22.66141309345393	-23.73417441508403	-23.91231806536716	16.38687476174761	116.041158872447	0	0
5.959999999999961	0.6445428470589729	1.700517261406942	37.79899027032046	0	0.9399999999999999	0	24.68215074545943	-8.41615165041198	-7.438482116289698	27.76259543808067	0.4845486992936652	0	0	0	24.68215074545943	-8.41615165041198	-7.438482116289698	27.76259543808067	0.4845486992936652	0	0	0	1.642863241575639	1.080349910737506	7.974178455702862	-2.189033571552869	-6.173450191015185	-4.619007902503023	9.901411715800048	103.4944768605413	0	0	26.53372827426007	-25.24489956714392	-22.54537889101805	16.88178803705378	116.0675645229097	0	0
5.97999999999996	0.6669429917907284	1.736526105829239	37.89795452582395	0	0.9399999999999999	0	24.69215416591632	-8.418674870469127	-7.441105172694545	27.77269558321082	0.4847249800811156	0	0	0	24.69215416591632	-8.418674870469127	-7.441105172694545	27.77269558321082	0.4847249800811156	0	0	0	1.684705783746944	1.09546110626655	7.961796261147354	-2.274893328304974	-6.189318303994957	-4.657491117062881	9.942783102798773	103.5532121005797	0	0	28.69339658509404	-25.96099580207497	-22.04464750061684	14.73723572060199	116.5230041905488	0	0
5.99999999999996	0.6644592816070988	1.739439276140055	37.87024262769709	0	0.9399999999999999	0	24.71356065802951	-8.424061106680181	-7.446713971766536	27.79428010615872	0.4851017010740287	0	0	0	24.71356065802951	-8.424061106680181	-7.446713971766536	27.79428010615872	0.4851017010740287	0	0	0	1.685842876893636	1.1017932404107	8.007391014919447	-2.252814346975007	-6.193359870499617	-4.659966417461496	9.894311020011857	103.5295443871036	0	0	30.89241749324984	-26.94127994537704	-21.50432458036513	18.20259939141311	117.0921261215301	0	0
6.01999999999996	0.6691798820134943	1.744154755181949	37.89147933908448	0	0.9399999999999999	0	24.72196607306715	-8.426174593640194	-7.448914889500347	27.80276816405798	0.4852498456314708	0	0	0	24.72196607306715	-8.426174593640194	-7.448914889500347	27.80276816405798	0.4852498456314708	0	0	0	1.692379458472074	1.103610106962174	8.038194598299954	-2.228142603021024	-6.197034512964487	-4.67834963486948	9.881765186072004	103.6069540876875	0	0	33.10125009946647	-27.5042748212746	-20.90839126305289	18.98747305295118	116.8055821142248	0	0
